<?xml version="1.0" encoding="UTF-8" standalone="no"?><!DOCTYPE svg PUBLIC "-//W3C//DTD SVG 1.1//EN" "http://www.w3.org/Graphics/SVG/1.1/DTD/svg11.dtd"><svg width="100%" height="100%" viewBox="0 0 100 100" version="1.1" xmlns="http://www.w3.org/2000/svg" xmlns:xlink="http://www.w3.org/1999/xlink" xml:space="preserve" xmlns:serif="http://www.serif.com/" style="fill-rule:evenodd;clip-rule:evenodd;stroke-linejoin:round;stroke-miterlimit:2;"><g><g><g><rect x="8.333" y="8.333" width="4.167" height="20.833"/><rect x="12.5" y="16.667" width="12.5" height="4.167"/><rect x="25" y="8.333" width="4.167" height="20.833"/></g><text x="30.697px" y="29.167px" style="font-family:'Arial-BoldMT', 'Arial', sans-serif;font-weight:700;font-size:28.986px;">1</text></g><g><g><rect x="29.167" y="37.5" width="4.167" height="20.833"/><rect x="33.333" y="45.833" width="12.5" height="4.167"/><rect x="45.833" y="37.5" width="4.167" height="20.833"/></g><text x="53.304px" y="58.333px" style="font-family:'Arial-BoldMT', 'Arial', sans-serif;font-weight:700;font-size:28.986px;">2</text></g><g><g><rect x="50" y="66.667" width="4.167" height="20.833"/><rect x="54.167" y="75" width="12.5" height="4.167"/><rect x="66.667" y="66.667" width="4.167" height="20.833"/></g><text x="73.682px" y="87.152px" style="font-family:'Arial-BoldMT', 'Arial', sans-serif;font-weight:700;font-size:28.501px;">3</text></g><rect x="87.5" y="8.333" width="4.167" height="4.167" style="fill:none;"/><rect x="8.333" y="8.333" width="4.167" height="4.167" style="fill:none;"/><rect x="8.333" y="87.5" width="4.167" height="4.167" style="fill:none;"/><rect x="87.5" y="87.5" width="4.167" height="4.167" style="fill:none;"/></g></svg>