<?xml version="1.0" encoding="UTF-8" standalone="no"?>
<!DOCTYPE svg PUBLIC "-//W3C//DTD SVG 1.1//EN" "http://www.w3.org/Graphics/SVG/1.1/DTD/svg11.dtd">
<svg width="100%" height="100%" viewBox="0 0 100 100" version="1.1" xmlns="http://www.w3.org/2000/svg" xmlns:xlink="http://www.w3.org/1999/xlink" xml:space="preserve" xmlns:serif="http://www.serif.com/" style="fill-rule:evenodd;clip-rule:evenodd;stroke-linejoin:round;stroke-miterlimit:2;">
  <g id="background-color">
    <g>
      <rect id="background-black" x="0" y="0" width="100" height="100"/>
      <rect id="background-white" x="0" y="0" width="100" height="100" style="fill:#fff;"/>
    </g>
  </g>
  <g id="H1">
    <g>
      <rect x="31.25" y="31.25" width="4.167" height="40.625"/>
      <rect x="58.333" y="41.667" width="4.167" height="30.208"/>
      <rect x="64.583" y="31.25" width="4.167" height="35.417"/>
      <rect x="37.5" y="41.667" width="4.167" height="25"/>
      <path d="M31.25,71.875c0,8.629 6.996,15.625 15.625,15.625c8.629,0 15.625,-6.996 15.625,-15.625l-4.174,0c-0,6.324 -5.127,11.451 -11.451,11.451c-6.324,-0 -11.451,-5.127 -11.451,-11.451l-4.174,0Z"/>
      <path d="M31.25,31.25c0,-10.355 8.395,-18.75 18.75,-18.75c10.355,0 18.75,8.395 18.75,18.75l-4.151,-0c-0,-8.063 -6.536,-14.599 -14.599,-14.599c-8.063,0 -14.599,6.536 -14.599,14.599l-4.151,-0Z"/>
      <path d="M37.5,41.667c0,-6.904 5.596,-12.5 12.5,-12.5c6.904,-0 12.5,5.596 12.5,12.5l-4.159,-0c0,-4.607 -3.734,-8.341 -8.341,-8.341c-4.607,-0 -8.341,3.734 -8.341,8.341l-4.159,-0Z"/>
    </g>
  </g>
</svg>
