<?xml version="1.0" encoding="UTF-8" standalone="no"?><!DOCTYPE svg PUBLIC "-//W3C//DTD SVG 1.1//EN" "http://www.w3.org/Graphics/SVG/1.1/DTD/svg11.dtd"><svg width="100%" height="100%" viewBox="0 0 24 24" version="1.1" xmlns="http://www.w3.org/2000/svg" xmlns:xlink="http://www.w3.org/1999/xlink" xml:space="preserve" xmlns:serif="http://www.serif.com/" style="fill-rule:evenodd;clip-rule:evenodd;stroke-linejoin:round;stroke-miterlimit:2;"><g><path d="M19.005,9.105c1.102,-1.102 1.075,-2.915 -0.06,-4.05c-1.135,-1.135 -2.948,-1.162 -4.05,-0.06l0.675,0.675c0.74,-0.74 1.948,-0.712 2.71,0.05c0.762,0.762 0.78,1.96 0.04,2.7l0.685,0.685Z"/><path d="M19.005,9.105c1.102,-1.102 1.075,-2.915 -0.06,-4.05c-1.135,-1.135 -2.948,-1.162 -4.05,-0.06l0.675,0.675c0.74,-0.74 1.948,-0.712 2.71,0.05c0.762,0.762 0.78,1.96 0.04,2.7l0.685,0.685Z"/><path d="M19.005,9.105l-0.685,-0.685l-2.661,2.661l0.685,0.684l2.661,-2.66Z"/><path d="M12.235,7.656c-1.102,1.102 -1.076,2.915 0.059,4.05c1.135,1.135 2.948,1.161 4.05,0.059l-0.675,-0.674c-0.74,0.74 -1.948,0.712 -2.71,-0.05c-0.762,-0.762 -0.78,-1.96 -0.04,-2.7l-0.684,-0.685Z"/><path d="M12.235,7.656c-1.102,1.102 -1.076,2.915 0.059,4.05c1.135,1.135 2.948,1.161 4.05,0.059l-0.675,-0.674c-0.74,0.74 -1.948,0.712 -2.71,-0.05c-0.762,-0.762 -0.78,-1.96 -0.04,-2.7l-0.684,-0.685Z"/><path d="M12.235,7.656l0.684,0.685l2.661,-2.661l-0.685,-0.685l-2.66,2.661Z"/><path d="M11.765,16.344c1.102,-1.102 1.076,-2.915 -0.059,-4.05c-1.135,-1.135 -2.948,-1.161 -4.05,-0.059l0.675,0.674c0.74,-0.74 1.948,-0.712 2.71,0.05c0.762,0.762 0.78,1.96 0.04,2.7l0.684,0.685Z"/><path d="M11.765,16.344c1.102,-1.102 1.076,-2.915 -0.059,-4.05c-1.135,-1.135 -2.948,-1.161 -4.05,-0.059l0.675,0.674c0.74,-0.74 1.948,-0.712 2.71,0.05c0.762,0.762 0.78,1.96 0.04,2.7l0.684,0.685Z"/><path d="M11.765,16.344l-0.684,-0.685l-2.661,2.661l0.685,0.685l2.66,-2.661Z"/><path d="M4.995,14.895c-1.102,1.102 -1.075,2.915 0.06,4.05c1.135,1.135 2.948,1.162 4.05,0.06l-0.675,-0.675c-0.74,0.74 -1.948,0.712 -2.71,-0.05c-0.762,-0.762 -0.78,-1.96 -0.04,-2.7l-0.685,-0.685Z"/><path d="M4.995,14.895c-1.102,1.102 -1.075,2.915 0.06,4.05c1.135,1.135 2.948,1.162 4.05,0.06l-0.675,-0.675c-0.74,0.74 -1.948,0.712 -2.71,-0.05c-0.762,-0.762 -0.78,-1.96 -0.04,-2.7l-0.685,-0.685Z"/><path d="M4.995,14.895l0.685,0.685l2.661,-2.661l-0.685,-0.684l-2.661,2.66Z"/><path d="M9.148,13.964l0.869,0.869l4.882,-4.882l-0.869,-0.869l-4.882,4.882Z"/><path d="M16.321,10.59l-2.58,2.409" style="fill:none;"/></g></svg>