<?xml version="1.0" encoding="UTF-8" standalone="no"?>
<!DOCTYPE svg PUBLIC "-//W3C//DTD SVG 1.1//EN" "http://www.w3.org/Graphics/SVG/1.1/DTD/svg11.dtd">
<svg width="100%" height="100%" viewBox="0 0 24 24" version="1.1" xmlns="http://www.w3.org/2000/svg" xmlns:xlink="http://www.w3.org/1999/xlink" xml:space="preserve" xmlns:serif="http://www.serif.com/" style="fill-rule:evenodd;clip-rule:evenodd;stroke-linejoin:round;stroke-miterlimit:2;">
  <g>
    <rect x="3" y="3" width="18" height="18" style="fill:#cce0ff;"/>
    <path d="M21,3l-18,0l0,18l18,-0l-0,-18Zm-1.02,1.02l0,15.96c0,0 -15.96,0 -15.96,0c-0,0 -0,-15.96 -0,-15.96c-0,-0 15.96,-0 15.96,-0Z"/>
    <g>
      <path d="M3,20.996l-0,-3l5.762,-5.5l5.238,5c-0,-0 -0.077,3.49 -0,3.5c0.076,0.009 -11,-0 -11,-0Z" style="fill:#8289e3;"/>
      <path d="M3,20.996l-0,-3l5.762,-5.5l5.238,5c-0,-0 -0.077,3.49 -0,3.5c0.076,0.009 -11,-0 -11,-0Zm9.948,-1.017c-2.11,0.003 -6.843,-0.001 -8.928,-0.002l-0,-1.545c-0,0 4.742,-4.526 4.742,-4.526c-0,-0 4.209,4.018 4.209,4.018c-0.009,0.512 -0.022,1.365 -0.023,2.055Z"/>
      <path d="M10,20.996l6.476,-6.5l4.524,4c0,-0 -0.067,2.49 -0,2.5c0.066,0.009 -11,-0 -11,-0Z" style="fill:#8289e3;"/>
      <path d="M10,20.996l6.476,-6.5l4.524,4c0,-0 -0.067,2.49 -0,2.5c0.066,0.009 -11,-0 -11,-0Zm9.955,-1.017c-1.707,0.002 -5.148,0 -7.502,-0.001l4.067,-4.082c0,0 3.45,3.05 3.45,3.05c-0.005,0.29 -0.012,0.672 -0.015,1.033Z"/>
    </g>
    <circle cx="15.5" cy="7.496" r="2" style="fill:#fff4d4;"/>
    <path d="M15.5,5.496c1.104,-0 2,0.896 2,2c0,1.104 -0.896,2 -2,2c-1.104,-0 -2,-0.896 -2,-2c0,-1.104 0.896,-2 2,-2Zm0,0.522c0.815,0 1.477,0.662 1.477,1.478c0,0.815 -0.662,1.477 -1.477,1.477c-0.815,-0 -1.477,-0.662 -1.477,-1.477c-0,-0.816 0.662,-1.478 1.477,-1.478Z"/>
  </g>
</svg>
