<?xml version="1.0" encoding="UTF-8" standalone="no"?><!DOCTYPE svg PUBLIC "-//W3C//DTD SVG 1.1//EN" "http://www.w3.org/Graphics/SVG/1.1/DTD/svg11.dtd"><svg width="100%" height="100%" viewBox="0 0 24 24" version="1.1" xmlns="http://www.w3.org/2000/svg" xmlns:xlink="http://www.w3.org/1999/xlink" xml:space="preserve" xmlns:serif="http://www.serif.com/" style="fill-rule:evenodd;clip-rule:evenodd;stroke-linejoin:round;stroke-miterlimit:2;"><g><path d="M13.643,4.91l-0.707,-0.707l-8.863,8.863l0.707,0.707l8.863,-8.863Z"/><path d="M17.879,9.16l-0.707,-0.707l-8.856,8.856l0.707,0.707l8.856,-8.856Z"/><path d="M13.973,7.409l-0.708,-0.707l-8.184,8.185l0.707,0.707l8.185,-8.185Z"/><path d="M18.215,11.652l-0.707,-0.707l-8.156,8.156l0.707,0.707l8.156,-8.156Z"/><path d="M5.134,14.834c-1.367,1.367 -1.367,3.583 -0,4.95c1.367,1.367 3.583,1.367 4.949,-0l-0.714,-0.714c-0.972,0.972 -2.549,0.972 -3.521,-0c-0.973,-0.973 -0.973,-2.549 -0,-3.522l-0.714,-0.714Z"/><path d="M12.921,4.227c1.367,-1.367 3.583,-1.367 4.95,0c1.366,1.367 1.366,3.583 -0,4.95l-0.714,-0.714c0.972,-0.973 0.972,-2.549 -0,-3.522c-0.973,-0.972 -2.55,-0.972 -3.522,0l-0.714,-0.714Z"/></g></svg>