<?xml version="1.0" encoding="UTF-8" standalone="no"?>
<!DOCTYPE svg PUBLIC "-//W3C//DTD SVG 1.1//EN" "http://www.w3.org/Graphics/SVG/1.1/DTD/svg11.dtd">
<svg width="100%" height="100%" viewBox="0 0 24 24" version="1.1" xmlns="http://www.w3.org/2000/svg" xmlns:xlink="http://www.w3.org/1999/xlink" xml:space="preserve" xmlns:serif="http://www.serif.com/" style="fill-rule:evenodd;clip-rule:evenodd;stroke-linejoin:round;stroke-miterlimit:2;">
  <g>
    <rect x="2" y="21" width="1" height="1" style="fill:none;"/>
    <rect x="21" y="21" width="1" height="1" style="fill:none;"/>
    <rect x="21" y="2" width="1" height="1" style="fill:none;"/>
    <rect x="2" y="2" width="1" height="1" style="fill:none;"/>
    <path d="M2.707,4.828l-0.707,0.708l2.121,2.121l0.707,-0.707l-2.121,-2.122Z"/>
    <path d="M2.707,4.828l-0.707,0.708l2.121,2.121l0.707,-0.707l-2.121,-2.122Z"/>
    <path d="M8.364,2l-4.243,4.243l0.707,0.707l4.243,-4.243l-0.707,-0.707Z"/>
    <path d="M8.364,2l-4.243,4.243l0.707,0.707l4.243,-4.243l-0.707,-0.707Z"/>
    <path d="M2.707,11.828l-0.707,0.708l2.121,2.121l0.707,-0.707l-2.121,-2.122Z"/>
    <path d="M2.707,11.828l-0.707,0.708l2.121,2.121l0.707,-0.707l-2.121,-2.122Z"/>
    <path d="M8.364,9l-4.243,4.243l0.707,0.707l4.243,-4.243l-0.707,-0.707Z"/>
    <path d="M2.707,18.828l-0.707,0.708l2.121,2.121l0.707,-0.707l-2.121,-2.122Z"/>
    <path d="M2.707,18.828l-0.707,0.708l2.121,2.121l0.707,-0.707l-2.121,-2.122Z"/>
    <path d="M8.364,16l-4.243,4.243l0.707,0.707l4.243,-4.243l-0.707,-0.707Z"/>
    <path d="M8.364,16l-4.243,4.243l0.707,0.707l4.243,-4.243l-0.707,-0.707Z"/>
    <rect x="9" y="5" width="12" height="1"/>
    <rect x="9" y="5" width="12" height="1"/>
    <rect x="9" y="12" width="12" height="1"/>
    <rect x="9" y="12" width="12" height="1"/>
    <rect x="9" y="19" width="12" height="1"/>
    <rect x="9" y="19" width="12" height="1"/>
  </g>
</svg>
