<?xml version="1.0" encoding="UTF-8" standalone="no"?>
<!DOCTYPE svg PUBLIC "-//W3C//DTD SVG 1.1//EN" "http://www.w3.org/Graphics/SVG/1.1/DTD/svg11.dtd">
<svg width="100%" height="100%" viewBox="0 0 100 100" version="1.1" xmlns="http://www.w3.org/2000/svg" xmlns:xlink="http://www.w3.org/1999/xlink" xml:space="preserve" xmlns:serif="http://www.serif.com/" style="fill-rule:evenodd;clip-rule:evenodd;stroke-linecap:round;stroke-linejoin:round;stroke-miterlimit:1.5;">
  <g>
    <g>
      <rect x="87.5" y="8.333" width="4.167" height="4.167" style="fill:none;"/>
      <rect x="8.333" y="8.333" width="4.167" height="4.167" style="fill:none;"/>
      <rect x="8.333" y="87.5" width="4.167" height="4.167" style="fill:none;"/>
      <rect x="87.5" y="87.5" width="4.167" height="4.167" style="fill:none;"/>
    </g>
    <path d="M57.101,17.432c-4.679,-1.02 -9.523,-1.02 -14.202,-0l-0.375,8.712c-3.512,1.1 -6.737,2.963 -9.446,5.454l-7.732,-4.032c-3.223,3.542 -5.645,7.737 -7.101,12.3l7.357,4.68c-0.803,3.592 -0.803,7.316 0,10.908l-7.357,4.68c1.456,4.563 3.878,8.758 7.101,12.3l7.732,-4.032c2.709,2.491 5.934,4.354 9.446,5.454l0.375,8.712c4.679,1.02 9.523,1.02 14.202,0l0.375,-8.712c3.512,-1.1 6.737,-2.963 9.446,-5.454l7.732,4.032c3.223,-3.542 5.645,-7.737 7.101,-12.3l-7.357,-4.68c0.803,-3.592 0.803,-7.316 -0,-10.908l7.357,-4.68c-1.456,-4.563 -3.878,-8.758 -7.101,-12.3l-7.732,4.032c-2.709,-2.491 -5.934,-4.354 -9.446,-5.454l-0.375,-8.712Zm-7.101,25.901c3.679,0 6.667,2.988 6.667,6.667c-0,3.679 -2.988,6.667 -6.667,6.667c-3.679,-0 -6.667,-2.988 -6.667,-6.667c0,-3.679 2.988,-6.667 6.667,-6.667Z" style="fill:none;stroke:#000;stroke-width:4.25px;"/>
  </g>
</svg>
