<?xml version="1.0" encoding="UTF-8" standalone="no"?><!DOCTYPE svg PUBLIC "-//W3C//DTD SVG 1.1//EN" "http://www.w3.org/Graphics/SVG/1.1/DTD/svg11.dtd"><svg width="100%" height="100%" viewBox="0 0 24 24" version="1.1" xmlns="http://www.w3.org/2000/svg" xmlns:xlink="http://www.w3.org/1999/xlink" xml:space="preserve" xmlns:serif="http://www.serif.com/" style="fill-rule:evenodd;clip-rule:evenodd;stroke-linecap:round;stroke-linejoin:round;stroke-miterlimit:1.5;"><g><path d="M12,3c4.967,0 9,4.033 9,9c0,4.967 -4.033,9 -9,9c-4.967,0 -9,-4.033 -9,-9c0,-4.967 4.033,-9 9,-9Zm0,1.02c4.404,-0 7.98,3.576 7.98,7.98c0,4.404 -3.576,7.98 -7.98,7.98c-4.404,0 -7.98,-3.576 -7.98,-7.98c-0,-4.404 3.576,-7.98 7.98,-7.98Z"/><path d="M12,12l0,-7" style="fill:none;stroke:#000;stroke-width:1.02px;"/><path d="M12,12l5,0" style="fill:none;stroke:#000;stroke-width:1.02px;"/></g></svg>