<?xml version="1.0" encoding="UTF-8" standalone="no"?>
<!DOCTYPE svg PUBLIC "-//W3C//DTD SVG 1.1//EN" "http://www.w3.org/Graphics/SVG/1.1/DTD/svg11.dtd">
<svg width="100%" height="100%" viewBox="0 0 100 100" version="1.1" xmlns="http://www.w3.org/2000/svg" xmlns:xlink="http://www.w3.org/1999/xlink" xml:space="preserve" xmlns:serif="http://www.serif.com/" style="fill-rule:evenodd;clip-rule:evenodd;stroke-linejoin:round;stroke-miterlimit:2;">
  <g>
    <text x="11.67px" y="32.292px" style="font-family:'Arial-BoldMT', 'Arial', sans-serif;font-weight:700;font-size:33.333px;">1</text>
    <text x="11.67px" y="61.458px" style="font-family:'Arial-BoldMT', 'Arial', sans-serif;font-weight:700;font-size:33.333px;">2</text>
    <text x="11.67px" y="90.625px" style="font-family:'Arial-BoldMT', 'Arial', sans-serif;font-weight:700;font-size:33.333px;">3</text>
    <rect x="37.5" y="20.833" width="50" height="4.167"/>
    <rect x="37.5" y="20.833" width="50" height="4.167"/>
    <rect x="37.5" y="50" width="50" height="4.167"/>
    <rect x="37.5" y="50" width="50" height="4.167"/>
    <rect x="37.5" y="79.167" width="50" height="4.167"/>
    <rect x="37.5" y="79.167" width="50" height="4.167"/>
    <rect x="8.333" y="8.333" width="4.167" height="4.167" style="fill:none;"/>
    <rect x="87.5" y="8.333" width="4.167" height="4.167" style="fill:none;"/>
    <rect x="8.333" y="8.333" width="4.167" height="4.167" style="fill:none;"/>
    <rect x="87.5" y="87.5" width="4.167" height="4.167" style="fill:none;"/>
    <rect x="8.333" y="8.333" width="4.167" height="4.167" style="fill:none;"/>
    <rect x="87.5" y="8.333" width="4.167" height="4.167" style="fill:none;"/>
    <rect x="87.5" y="8.333" width="4.167" height="4.167" style="fill:none;"/>
    <rect x="8.333" y="87.5" width="4.167" height="4.167" style="fill:none;"/>
    <rect x="8.333" y="87.5" width="4.167" height="4.167" style="fill:none;"/>
  </g>
</svg>
